# xmcd
#
# Track frame offsets: 
#        150
#        17819
#        35771
#        44017
#        60276
#        76748
#        96548
#        113473
#        128870
#        146200
#        161545
#        174859
#        203658
#
# Disc length: 3828 seconds
#
# Revision: 3
# Processed by: cddbd v1.5.2PL0 Copyright (c) Steve Scherf et al.
# Submitted via: ExactAudioCopy v1.3
#
DISCID=a90ef20d
DTITLE=????????? ?????????? - ? ????? ?????? ????
DYEAR=2005
DGENRE=Pop
TTITLE0=? ????? ?????? ????
TTITLE1=?????
TTITLE2=? ?? ???? ?????
TTITLE3=??? ???? ????
TTITLE4=? ????????
TTITLE5=??? ??????
TTITLE6=????? ????????
TTITLE7=??????
TTITLE8=????????? (remix)
TTITLE9=???? (remix)
TTITLE10=? ?? ???? ????? (remix)
TTITLE11=? ????? ?????? ???? (remix)
TTITLE12=[CD-ROM)
EXTD=
EXTT0=
EXTT1=
EXTT2=
EXTT3=
EXTT4=
EXTT5=
EXTT6=
EXTT7=
EXTT8=
EXTT9=
EXTT10=
EXTT11=
EXTT12=
PLAYORDER=
